<svg width="77" height="86" viewBox="0 0 77 86" fill="none" xmlns="http://www.w3.org/2000/svg">
<rect opacity="0.1" y="0.09375" width="76.7084" height="84.9572" rx="2.18203" fill="#24B8FF"/>
<path d="M37.9974 61.4193C48.1226 61.4193 56.3307 53.3977 56.3307 43.5026C56.3307 33.6075 48.1226 25.5859 37.9974 25.5859C27.8722 25.5859 19.6641 33.6075 19.6641 43.5026C19.6641 53.3977 27.8722 61.4193 37.9974 61.4193Z" stroke="#24B8FF" stroke-width="2" stroke-linecap="round" stroke-linejoin="round"/>
<path d="M38 54.25C44.0751 54.25 49 49.4371 49 43.5C49 37.5629 44.0751 32.75 38 32.75C31.9249 32.75 27 37.5629 27 43.5C27 49.4371 31.9249 54.25 38 54.25Z" stroke="#24B8FF" stroke-width="2" stroke-linecap="round" stroke-linejoin="round"/>
<path d="M37.9948 47.0885C40.0198 47.0885 41.6615 45.4842 41.6615 43.5052C41.6615 41.5262 40.0198 39.9219 37.9948 39.9219C35.9697 39.9219 34.3281 41.5262 34.3281 43.5052C34.3281 45.4842 35.9697 47.0885 37.9948 47.0885Z" stroke="#24B8FF" stroke-width="2" stroke-linecap="round" stroke-linejoin="round"/>
</svg>
