<svg width="252" height="74" viewBox="0 0 252 74" fill="none" xmlns="http://www.w3.org/2000/svg">
<rect x="0.695312" y="0.53125" width="71.6094" height="71.6094" rx="8" fill="#C7EE42"/>
<circle cx="36.4971" cy="37.6612" r="11.9346" fill="#B5D93C"/>
<g filter="url(#filter0_b_1052_2141)">
<path d="M0.695312 36.3359H72.3047V69.4667C72.3047 71.6759 70.5138 73.4667 68.3047 73.4667H4.69531C2.48617 73.4667 0.695312 71.6759 0.695312 69.4667V36.3359Z" fill="white" fill-opacity="0.5"/>
</g>
<path d="M92.6001 48.5V25.2273H101.509C103.191 25.2273 104.589 25.4924 105.702 26.0227C106.824 26.5455 107.661 27.2614 108.214 28.1705C108.774 29.0795 109.055 30.1098 109.055 31.2614C109.055 32.2083 108.873 33.0189 108.509 33.6932C108.146 34.3598 107.657 34.9015 107.043 35.3182C106.43 35.7348 105.744 36.0341 104.987 36.2159V36.4432C105.812 36.4886 106.604 36.7424 107.362 37.2045C108.127 37.6591 108.752 38.303 109.237 39.1364C109.721 39.9697 109.964 40.9773 109.964 42.1591C109.964 43.3636 109.672 44.447 109.089 45.4091C108.505 46.3636 107.627 47.1174 106.452 47.6705C105.278 48.2235 103.801 48.5 102.021 48.5H92.6001ZM96.8161 44.9773H101.35C102.88 44.9773 103.983 44.6856 104.657 44.1023C105.339 43.5114 105.68 42.7538 105.68 41.8295C105.68 41.1402 105.509 40.5189 105.168 39.9659C104.827 39.4053 104.343 38.9659 103.714 38.6477C103.085 38.322 102.335 38.1591 101.464 38.1591H96.8161V44.9773ZM96.8161 35.125H100.987C101.714 35.125 102.369 34.9924 102.952 34.7273C103.536 34.4545 103.994 34.072 104.327 33.5795C104.668 33.0795 104.839 32.4886 104.839 31.8068C104.839 30.9053 104.521 30.1629 103.884 29.5795C103.255 28.9962 102.32 28.7045 101.077 28.7045H96.8161V35.125ZM121.177 48.8409C119.427 48.8409 117.915 48.4773 116.643 47.75C115.378 47.0152 114.404 45.9773 113.722 44.6364C113.04 43.2879 112.7 41.7008 112.7 39.875C112.7 38.0795 113.04 36.5038 113.722 35.1477C114.412 33.7841 115.374 32.7235 116.609 31.9659C117.844 31.2008 119.294 30.8182 120.961 30.8182C122.037 30.8182 123.052 30.9924 124.006 31.3409C124.969 31.6818 125.817 32.2121 126.552 32.9318C127.294 33.6515 127.878 34.5682 128.302 35.6818C128.726 36.7879 128.938 38.1061 128.938 39.6364V40.8977H114.631V38.125H124.995C124.987 37.3371 124.817 36.6364 124.484 36.0227C124.15 35.4015 123.684 34.9129 123.086 34.5568C122.495 34.2008 121.806 34.0227 121.018 34.0227C120.177 34.0227 119.438 34.2273 118.802 34.6364C118.165 35.0379 117.669 35.5682 117.313 36.2273C116.965 36.8788 116.787 37.5947 116.779 38.375V40.7955C116.779 41.8106 116.965 42.6818 117.336 43.4091C117.707 44.1288 118.226 44.6818 118.893 45.0682C119.559 45.447 120.34 45.6364 121.234 45.6364C121.832 45.6364 122.374 45.553 122.859 45.3864C123.344 45.2121 123.764 44.9583 124.12 44.625C124.476 44.2917 124.745 43.8788 124.927 43.3864L128.768 43.8182C128.525 44.8333 128.063 45.7197 127.381 46.4773C126.707 47.2273 125.844 47.8106 124.79 48.2273C123.737 48.6364 122.533 48.8409 121.177 48.8409ZM141.134 31.0455V34.2273H131.1V31.0455H141.134ZM133.577 26.8636H137.691V43.25C137.691 43.803 137.774 44.2273 137.941 44.5227C138.115 44.8106 138.343 45.0076 138.623 45.1136C138.903 45.2197 139.214 45.2727 139.555 45.2727C139.812 45.2727 140.047 45.2538 140.259 45.2159C140.479 45.178 140.646 45.1439 140.759 45.1136L141.452 48.3295C141.233 48.4053 140.918 48.4886 140.509 48.5795C140.108 48.6705 139.615 48.7235 139.032 48.7386C138.002 48.7689 137.074 48.6136 136.248 48.2727C135.422 47.9242 134.767 47.3864 134.282 46.6591C133.805 45.9318 133.57 45.0227 133.577 43.9318V26.8636ZM153.29 31.0455V34.2273H143.256V31.0455H153.29ZM145.734 26.8636H149.847V43.25C149.847 43.803 149.931 44.2273 150.097 44.5227C150.272 44.8106 150.499 45.0076 150.779 45.1136C151.059 45.2197 151.37 45.2727 151.711 45.2727C151.969 45.2727 152.203 45.2538 152.415 45.2159C152.635 45.178 152.802 45.1439 152.915 45.1136L153.609 48.3295C153.389 48.4053 153.075 48.4886 152.665 48.5795C152.264 48.6705 151.772 48.7235 151.188 48.7386C150.158 48.7689 149.23 48.6136 148.404 48.2727C147.578 47.9242 146.923 47.3864 146.438 46.6591C145.961 45.9318 145.726 45.0227 145.734 43.9318V26.8636ZM164.271 48.8409C162.521 48.8409 161.009 48.4773 159.737 47.75C158.471 47.0152 157.498 45.9773 156.816 44.6364C156.134 43.2879 155.793 41.7008 155.793 39.875C155.793 38.0795 156.134 36.5038 156.816 35.1477C157.505 33.7841 158.468 32.7235 159.702 31.9659C160.937 31.2008 162.388 30.8182 164.055 30.8182C165.13 30.8182 166.146 30.9924 167.1 31.3409C168.062 31.6818 168.911 32.2121 169.646 32.9318C170.388 33.6515 170.971 34.5682 171.396 35.6818C171.82 36.7879 172.032 38.1061 172.032 39.6364V40.8977H157.725V38.125H168.089C168.081 37.3371 167.911 36.6364 167.577 36.0227C167.244 35.4015 166.778 34.9129 166.18 34.5568C165.589 34.2008 164.899 34.0227 164.112 34.0227C163.271 34.0227 162.532 34.2273 161.896 34.6364C161.259 35.0379 160.763 35.5682 160.407 36.2273C160.058 36.8788 159.88 37.5947 159.873 38.375V40.7955C159.873 41.8106 160.058 42.6818 160.43 43.4091C160.801 44.1288 161.32 44.6818 161.987 45.0682C162.653 45.447 163.433 45.6364 164.327 45.6364C164.926 45.6364 165.468 45.553 165.952 45.3864C166.437 45.2121 166.858 44.9583 167.214 44.625C167.57 44.2917 167.839 43.8788 168.021 43.3864L171.862 43.8182C171.619 44.8333 171.157 45.7197 170.475 46.4773C169.801 47.2273 168.937 47.8106 167.884 48.2273C166.831 48.6364 165.627 48.8409 164.271 48.8409ZM175.512 48.5V31.0455H179.501V33.9545H179.683C180.001 32.947 180.546 32.1705 181.319 31.625C182.099 31.072 182.989 30.7955 183.989 30.7955C184.217 30.7955 184.47 30.8068 184.751 30.8295C185.039 30.8447 185.277 30.8712 185.467 30.9091V34.6932C185.292 34.6326 185.016 34.5795 184.637 34.5341C184.266 34.4811 183.906 34.4545 183.558 34.4545C182.808 34.4545 182.133 34.6174 181.535 34.9432C180.944 35.2614 180.478 35.7045 180.137 36.2727C179.796 36.8409 179.626 37.4962 179.626 38.2386V48.5H175.512ZM196.319 48.5V25.2273H200.535V44.9659H210.785V48.5H196.319ZM214.262 48.5V31.0455H218.376V48.5H214.262ZM216.33 28.5682C215.679 28.5682 215.118 28.3523 214.648 27.9205C214.179 27.4811 213.944 26.9545 213.944 26.3409C213.944 25.7197 214.179 25.1932 214.648 24.7614C215.118 24.322 215.679 24.1023 216.33 24.1023C216.989 24.1023 217.55 24.322 218.012 24.7614C218.482 25.1932 218.717 25.7197 218.717 26.3409C218.717 26.9545 218.482 27.4811 218.012 27.9205C217.55 28.3523 216.989 28.5682 216.33 28.5682ZM231.447 31.0455V34.2273H221.129V31.0455H231.447ZM223.708 48.5V29.3977C223.708 28.2235 223.951 27.2462 224.435 26.4659C224.928 25.6856 225.587 25.1023 226.413 24.7159C227.238 24.3295 228.155 24.1364 229.163 24.1364C229.875 24.1364 230.507 24.1932 231.06 24.3068C231.613 24.4205 232.022 24.5227 232.288 24.6136L231.469 27.7955C231.295 27.7424 231.076 27.6894 230.81 27.6364C230.545 27.5758 230.25 27.5455 229.924 27.5455C229.159 27.5455 228.617 27.7311 228.299 28.1023C227.988 28.4659 227.833 28.9886 227.833 29.6705V48.5H223.708ZM241.739 48.8409C239.989 48.8409 238.478 48.4773 237.205 47.75C235.94 47.0152 234.967 45.9773 234.285 44.6364C233.603 43.2879 233.262 41.7008 233.262 39.875C233.262 38.0795 233.603 36.5038 234.285 35.1477C234.974 33.7841 235.936 32.7235 237.171 31.9659C238.406 31.2008 239.857 30.8182 241.523 30.8182C242.599 30.8182 243.614 30.9924 244.569 31.3409C245.531 31.6818 246.379 32.2121 247.114 32.9318C247.857 33.6515 248.44 34.5682 248.864 35.6818C249.289 36.7879 249.501 38.1061 249.501 39.6364V40.8977H235.194V38.125H245.558C245.55 37.3371 245.379 36.6364 245.046 36.0227C244.713 35.4015 244.247 34.9129 243.648 34.5568C243.058 34.2008 242.368 34.0227 241.58 34.0227C240.739 34.0227 240.001 34.2273 239.364 34.6364C238.728 35.0379 238.232 35.5682 237.876 36.2273C237.527 36.8788 237.349 37.5947 237.342 38.375V40.7955C237.342 41.8106 237.527 42.6818 237.898 43.4091C238.27 44.1288 238.789 44.6818 239.455 45.0682C240.122 45.447 240.902 45.6364 241.796 45.6364C242.395 45.6364 242.936 45.553 243.421 45.3864C243.906 45.2121 244.326 44.9583 244.683 44.625C245.039 44.2917 245.308 43.8788 245.489 43.3864L249.33 43.8182C249.088 44.8333 248.626 45.7197 247.944 46.4773C247.27 47.2273 246.406 47.8106 245.353 48.2273C244.3 48.6364 243.095 48.8409 241.739 48.8409Z" fill="#4A4A4A"/>
<defs>
<filter id="filter0_b_1052_2141" x="-2.30469" y="33.3359" width="77.6094" height="43.1328" filterUnits="userSpaceOnUse" color-interpolation-filters="sRGB">
<feFlood flood-opacity="0" result="BackgroundImageFix"/>
<feGaussianBlur in="BackgroundImageFix" stdDeviation="1.5"/>
<feComposite in2="SourceAlpha" operator="in" result="effect1_backgroundBlur_1052_2141"/>
<feBlend mode="normal" in="SourceGraphic" in2="effect1_backgroundBlur_1052_2141" result="shape"/>
</filter>
</defs>
</svg>
