<svg width="199" height="203" viewBox="0 0 199 203" fill="none" xmlns="http://www.w3.org/2000/svg">
<ellipse opacity="0.0786365" cx="99.1367" cy="101.044" rx="99.1367" ry="101.044" fill="white"/>
<path d="M100.288 65.0469C77.6364 65.0469 59.2656 80.0907 59.2656 98.6742C59.2656 117.258 77.6364 132.301 100.288 132.301C103.855 132.301 107.6 131.947 111.167 131.063L131.679 139.204C131.857 139.204 132.035 139.381 132.392 139.381C132.749 139.381 133.105 139.204 133.462 139.027C133.997 138.673 134.176 137.965 134.176 137.434L132.214 119.735C138.099 113.895 141.31 106.285 141.31 98.6742C141.31 80.0907 122.939 65.0469 100.288 65.0469Z" fill="#68D585"/>
</svg>
