<svg width="77" height="87" viewBox="0 0 77 87" fill="none" xmlns="http://www.w3.org/2000/svg">
<rect opacity="0.1" x="0.140625" y="0.140625" width="76.7084" height="86.0061" rx="2.18203" fill="#E5BD3B"/>
<path d="M44.5619 25.6875C40.3717 25.6875 36.9709 29.5982 36.9709 34.4167C36.9709 39.2353 40.3717 43.146 44.5619 43.146C48.7521 43.146 52.1528 39.2353 52.1528 34.4167C52.1528 29.5982 48.7521 25.6875 44.5619 25.6875ZM44.5619 39.6543C42.0417 39.6543 40.0073 37.3149 40.0073 34.4167C40.0073 31.5186 42.0417 29.1792 44.5619 29.1792C47.082 29.1792 49.1164 31.5186 49.1164 34.4167C49.1164 37.3149 47.082 39.6543 44.5619 39.6543ZM49.1164 50.1294H46.08C46.08 48.0344 44.9414 46.1489 43.241 45.4156L33.889 41.4001H21.7891V60.6045H30.8982V58.0905L41.5255 61.4774L53.671 57.1128V55.3669C53.671 52.4688 51.6366 50.1294 49.1164 50.1294ZM27.8618 57.1128H24.8254V44.8918H27.8618V57.1128ZM41.4799 57.8286L30.8982 54.494V44.8918H33.3425L42.1783 48.6803C42.6945 48.9073 43.0437 49.4834 43.0437 50.1294C43.0437 50.1294 40.0073 50.0421 39.5518 49.8675L35.9386 48.4883L34.9821 51.8054L38.5954 53.1846C39.3697 53.4814 40.1743 53.6211 40.9941 53.6211H49.1164C49.7085 53.6211 50.2399 54.0401 50.4828 54.6162L41.4799 57.8286Z" fill="#E5BD3B"/>
</svg>
