<svg width="77" height="86" viewBox="0 0 77 86" fill="none" xmlns="http://www.w3.org/2000/svg">
<rect opacity="0.1" y="0.09375" width="76.7084" height="84.9572" rx="2.18203" fill="#8CF28C"/>
<path d="M27.8281 43.6314C27.8281 42.7346 28.1451 41.8745 28.7092 41.2404C29.2733 40.6063 30.0385 40.25 30.8363 40.25H45.8772C46.675 40.25 47.4401 40.6063 48.0043 41.2404C48.5684 41.8745 48.8853 42.7346 48.8853 43.6314V53.7755C48.8853 54.6723 48.5684 55.5324 48.0043 56.1665C47.4401 56.8007 46.675 57.1569 45.8772 57.1569H30.8363C30.0385 57.1569 29.2733 56.8007 28.7092 56.1665C28.1451 55.5324 27.8281 54.6723 27.8281 53.7755V43.6314Z" stroke="#8CF28C" stroke-width="2" stroke-linecap="round" stroke-linejoin="round"/>
<path d="M32.3438 40.2521V33.4893C32.3438 31.6957 32.9776 29.9756 34.1059 28.7073C35.2342 27.4391 36.7645 26.7266 38.3601 26.7266C39.9557 26.7266 41.486 27.4391 42.6143 28.7073C43.7426 29.9756 44.3764 31.6957 44.3764 33.4893V40.2521M36.856 48.7055C36.856 49.1539 37.0145 49.584 37.2965 49.901C37.5786 50.2181 37.9612 50.3962 38.3601 50.3962C38.759 50.3962 39.1416 50.2181 39.4236 49.901C39.7057 49.584 39.8642 49.1539 39.8642 48.7055C39.8642 48.2571 39.7057 47.8271 39.4236 47.51C39.1416 47.193 38.759 47.0149 38.3601 47.0149C37.9612 47.0149 37.5786 47.193 37.2965 47.51C37.0145 47.8271 36.856 48.2571 36.856 48.7055Z" stroke="#8CF28C" stroke-width="2" stroke-linecap="round" stroke-linejoin="round"/>
</svg>
