<svg width="401" height="323" viewBox="0 0 401 323" fill="none" xmlns="http://www.w3.org/2000/svg">
<g clip-path="url(#clip0_1052_2197)">
<path d="M228.444 285.749C225.671 281.87 221.918 279.032 217.199 277.97C213.084 277.043 208.852 277.201 204.67 277.233L151.779 277.641C147.249 277.676 142.906 281.596 143.117 286.295C143.326 290.954 146.924 294.986 151.779 294.949C167.272 294.83 182.766 294.71 198.259 294.591C201.911 294.563 205.566 294.497 209.219 294.509C210.039 294.512 210.856 294.555 211.675 294.564C211.874 294.566 212.017 294.565 212.118 294.56C212.144 294.568 212.165 294.575 212.198 294.584C212.626 294.701 213.064 294.782 213.494 294.894C213.344 294.898 213.773 295.166 213.989 295.257C214.019 295.315 214.082 295.418 214.187 295.578C214.335 295.854 214.77 296.692 214.788 296.666C215.443 298.32 215.984 300.018 216.406 301.746C217.412 305.558 217.633 306.354 217.778 309.931C217.961 314.448 221.632 318.8 226.441 318.585C230.977 318.382 235.299 314.776 235.103 309.931C234.772 301.766 233.338 292.596 228.444 285.749Z" fill="#E6E6E6"/>
<path d="M154.888 305.282C153.894 299.268 152.92 293.25 151.907 287.239C150.879 281.141 148.781 275.557 144.031 271.555C142.762 270.485 141.446 269.487 140.124 268.492C139.659 268.142 139.195 267.791 138.736 267.434C138.709 267.413 138.691 267.399 138.667 267.381C138.617 267.337 138.556 267.286 138.475 267.217C136.495 265.543 134.582 263.795 132.76 261.936C131.142 260.286 129.595 258.565 128.118 256.773C127.749 256.326 127.385 255.875 127.025 255.419C126.963 255.341 126.63 254.911 126.411 254.63C126.207 254.349 125.834 253.842 125.771 253.754C125.351 253.16 124.938 252.561 124.533 251.957C121.774 247.827 119.385 243.462 117.394 238.913C117.196 238.462 117.004 238.008 116.815 237.552C116.765 237.413 116.7 237.234 116.613 236.995C116.212 235.893 115.811 234.792 115.444 233.676C114.665 231.307 113.994 228.902 113.434 226.463C113.156 225.258 112.907 224.048 112.685 222.831C112.57 222.205 112.463 221.578 112.363 220.95C112.347 220.846 112.25 220.168 112.192 219.785C112.15 219.4 112.071 218.718 112.061 218.613C111.997 217.98 111.941 217.346 111.892 216.711C111.781 215.283 111.706 213.853 111.667 212.42C111.601 209.874 111.646 207.328 111.804 204.782C111.894 203.351 112.022 201.925 112.179 200.501C112.189 200.413 112.196 200.344 112.203 200.281C112.213 200.217 112.224 200.145 112.237 200.055C112.354 199.268 112.476 198.482 112.614 197.699C113.133 194.724 113.809 191.779 114.638 188.875C115.031 187.502 115.457 186.14 115.917 184.789C116.122 184.189 116.334 183.591 116.552 182.996C116.538 183.035 117.192 181.365 117.201 181.309C119.797 175.181 124.043 169.595 124.049 162.634C124.053 157.922 120.062 153.407 115.386 153.625C113.055 153.712 110.849 154.701 109.233 156.381C107.618 158.062 106.718 160.304 106.724 162.634C106.724 162.74 106.723 162.831 106.723 162.918C106.68 163.065 106.643 163.187 106.61 163.296C106.104 164.395 105.484 165.439 104.928 166.511C103.407 169.444 102.108 172.474 100.874 175.548C98.8544 180.554 97.3084 185.738 96.2564 191.032C93.9697 202.632 93.7923 214.549 95.7324 226.211C99.091 246.664 110.167 266.241 125.565 279.401C126.901 280.543 128.27 281.647 129.652 282.728C130.224 283.175 130.8 283.615 131.38 284.051C131.654 284.257 132.788 285.151 132.289 284.718C133.362 285.633 133.814 286.094 134.09 286.768C134.13 286.923 134.184 287.134 134.258 287.423C134.452 288.183 134.637 288.941 134.79 289.712C136.131 296.447 137.062 303.294 138.182 310.072C138.951 314.73 144.69 317.761 148.837 316.365C153.665 314.74 155.712 310.273 154.888 305.282Z" fill="#E6E6E6"/>
<path d="M229.317 322.745C225.679 322.754 222.186 321.321 219.604 318.761C217.022 316.201 215.562 312.722 215.544 309.087V299.215C205.198 300.372 169.772 300.104 159.618 298.474V308.692C159.59 312.324 158.127 315.798 155.547 318.356C152.967 320.914 149.48 322.35 145.844 322.35C142.209 322.35 138.722 320.914 136.142 318.356C133.562 315.798 132.098 312.324 132.071 308.692V288.63C118.317 280.997 106.852 269.835 98.8572 256.297C90.8628 242.758 86.6293 227.334 86.5938 211.615C86.5938 184.663 98.8201 159.521 120.138 142.635C133.999 131.619 150.839 124.994 168.497 123.61C170.894 123.423 173.305 123.328 175.665 123.328C183.976 123.328 221.477 124.61 230.886 127.315L252.34 106.046C252.656 105.729 253.059 105.514 253.497 105.426C253.936 105.339 254.391 105.384 254.804 105.556C255.22 105.721 255.576 106.008 255.826 106.38C256.076 106.751 256.207 107.189 256.203 107.637V111.018L260.381 106.885C260.695 106.567 261.098 106.351 261.536 106.264C261.975 106.176 262.429 106.221 262.842 106.393C263.258 106.559 263.615 106.846 263.865 107.217C264.115 107.589 264.247 108.027 264.243 108.475V146.263C275.008 155.959 283.214 168.159 288.131 181.78C293.049 195.402 294.527 210.025 292.435 224.354C290.343 238.683 284.746 252.275 276.138 263.926C267.531 275.577 256.179 284.927 243.09 291.147V309.087C243.072 312.722 241.612 316.201 239.03 318.761C236.448 321.321 232.955 322.754 229.317 322.745ZM216.627 297.989V309.087C216.654 312.432 218.003 315.63 220.38 317.986C222.757 320.341 225.969 321.663 229.317 321.663C232.665 321.663 235.877 320.341 238.254 317.986C240.631 315.63 241.98 312.432 242.007 309.087V290.463L242.317 290.317C257.003 283.354 269.471 272.461 278.336 258.848C289.632 241.475 294.33 220.637 291.579 200.104C288.829 179.571 278.811 160.7 263.34 146.907L263.16 146.746V108.475C263.164 108.242 263.096 108.014 262.966 107.821C262.837 107.628 262.651 107.48 262.434 107.395C262.218 107.303 261.979 107.278 261.749 107.324C261.519 107.37 261.308 107.484 261.144 107.651L255.12 113.612V107.637C255.124 107.404 255.056 107.176 254.927 106.983C254.797 106.79 254.611 106.641 254.394 106.557C254.177 106.465 253.939 106.441 253.708 106.487C253.478 106.532 253.267 106.647 253.102 106.815L231.189 128.539L230.877 128.441C222.13 125.706 184.039 124.409 175.664 124.409C173.333 124.409 170.95 124.503 168.582 124.689C151.139 126.055 134.503 132.6 120.811 143.482C99.7535 160.162 87.6764 184.996 87.6764 211.615C87.7124 227.195 91.9233 242.481 99.8715 255.885C107.82 269.289 119.215 280.322 132.875 287.839L133.154 287.993V308.693C133.182 312.037 134.531 315.234 136.908 317.589C139.285 319.944 142.497 321.266 145.844 321.266C149.192 321.266 152.404 319.944 154.781 317.589C157.158 315.234 158.507 312.037 158.535 308.693V297.18L159.176 297.3C168.302 299.015 206.728 299.286 216.015 298.069L216.627 297.989Z" fill="#3F3D56"/>
<path d="M155.924 64.4247L95.9698 82.4252C94.0629 83 92.4623 84.3076 91.5197 86.0607C90.5772 87.8137 90.3697 89.8689 90.943 91.7746C91.5162 93.6804 92.8232 95.2809 94.5769 96.2245C96.3306 97.1682 98.3875 97.3777 100.296 96.8072L152.762 81.0514L153.862 80.7214C154.084 75.063 155.621 69.5338 158.35 64.5707C158.007 64.4168 157.641 64.3217 157.267 64.2895C156.815 64.2457 156.359 64.2917 155.924 64.4247Z" fill="#B4B4B4"/>
<path d="M99.254 100.65C98.4581 100.648 97.683 100.396 97.0381 99.9301C96.3932 99.4641 95.9113 98.8074 95.6603 98.0529L91.9112 86.7506C91.7546 86.2786 91.6926 85.7805 91.7288 85.2845C91.7649 84.7886 91.8985 84.3047 92.1219 83.8603C92.3453 83.416 92.6541 83.02 93.0307 82.6949C93.4073 82.3698 93.8443 82.122 94.3168 81.9656L143.114 65.8095C143.586 65.653 144.085 65.5911 144.581 65.6272C145.077 65.6632 145.562 65.7966 146.006 66.0197C146.451 66.2428 146.848 66.5512 147.173 66.9274C147.499 67.3036 147.747 67.7401 147.903 68.212L151.652 79.5142C151.964 80.4438 151.902 81.4582 151.478 82.3426C151.054 83.2269 150.302 83.9117 149.382 84.252C149.337 84.2689 149.292 84.2848 149.246 84.2998L100.45 100.455C100.064 100.584 99.6604 100.649 99.254 100.65Z" fill="#2F2E41"/>
<path d="M190.64 44.3594C180.791 44.3632 171.331 48.1954 164.26 55.0449C157.19 61.8944 153.065 71.2237 152.758 81.0581C152.747 81.4421 152.742 81.8315 152.742 82.221C152.742 89.7093 154.965 97.0294 159.129 103.256C163.293 109.482 169.212 114.335 176.137 117.2C183.062 120.066 190.682 120.816 198.034 119.355C205.385 117.894 212.138 114.288 217.438 108.993C222.738 103.698 226.347 96.9518 227.81 89.6074C229.272 82.263 228.521 74.6503 225.653 67.732C222.785 60.8137 217.927 54.9005 211.695 50.7402C205.463 46.5799 198.136 44.3594 190.64 44.3594ZM190.64 119.001C180.879 118.991 171.521 115.112 164.619 108.217C157.717 101.322 153.835 91.9725 153.825 82.221C153.825 81.7179 153.836 81.2203 153.857 80.7281C154.151 73.5235 156.557 66.5639 160.778 60.7147C164.998 54.8655 170.847 50.3848 177.596 47.8298C184.345 45.2747 191.697 44.758 198.738 46.3439C205.779 47.9298 212.198 51.5483 217.196 56.7496C222.195 61.9508 225.553 68.5053 226.853 75.5979C228.153 82.6906 227.337 90.0085 224.508 96.6418C221.678 103.275 216.959 108.931 210.937 112.906C204.916 116.882 197.857 119.001 190.64 119.001Z" fill="#3F3D56"/>
<path d="M222.58 82.2165C222.58 90.68 219.215 98.797 213.225 104.782C207.234 110.766 199.109 114.128 190.638 114.128C182.166 114.128 174.041 110.766 168.051 104.782C162.061 98.797 158.695 90.68 158.695 82.2165C158.695 81.205 158.744 80.2098 158.836 79.2254C159.606 71.0572 163.495 63.499 169.696 58.1201C175.897 52.7412 183.933 49.9549 192.136 50.3399C200.34 50.7248 208.079 54.2513 213.748 60.1871C219.417 66.123 222.58 74.0121 222.58 82.2165Z" fill="#E6E6E6"/>
<path d="M204.655 78.3807V80.9375H178.575V78.3807H204.655ZM204.655 83.9034V86.4602H178.575V83.9034H204.655ZM202.571 68.8182V95H197.79L186.412 78.5213H186.207V95H180.685V68.8182H185.53L196.844 85.2841H197.061V68.8182H202.571Z" fill="#B4B4B4"/>
<path d="M100.998 146.451C100.161 146.45 99.348 146.173 98.6848 145.663C98.0216 145.153 97.5454 144.438 97.33 143.63L95.2889 135.912C95.0334 134.942 95.1735 133.91 95.6784 133.043C96.1834 132.176 97.0119 131.544 97.9824 131.287L162.377 114.287C163.348 114.034 164.381 114.175 165.249 114.68C166.116 115.186 166.748 116.014 167.006 116.983L168.735 123.523L168.411 123.548C151.896 124.831 136.094 130.813 122.876 140.786L122.782 140.832L101.959 146.327C101.646 146.409 101.323 146.451 100.998 146.451Z" fill="#2F2E41"/>
<path d="M90.3327 184.583C82.7789 183.468 75.5546 180.74 69.1521 176.583C65.9801 174.525 63.0437 172.125 60.3955 169.428C57.7817 166.764 55.2812 163.737 53.9866 160.19C52.7409 156.908 52.8051 153.274 54.1659 150.038C55.5081 146.822 58.072 144.269 61.2954 142.939C64.5382 141.647 68.4561 141.508 71.612 142.923C73.1159 143.582 74.4172 144.628 75.3825 145.955C75.8312 146.567 76.1634 147.256 76.3626 147.988C76.5474 148.651 76.5642 149.35 76.4115 150.021C76.2264 150.692 75.9001 151.314 75.4543 151.848C75.0085 152.382 74.4537 152.815 73.8269 153.117C72.4475 153.824 70.9529 154.279 69.4134 154.462C67.8649 154.673 65.6405 154.864 64.3957 153.623C64.1394 153.377 63.9379 153.08 63.8042 152.751C63.7106 152.5 63.6786 152.229 63.7108 151.963C63.6927 152.08 63.7859 151.707 63.7806 151.722C63.7609 151.777 63.6757 151.912 63.7969 151.705C63.8347 151.637 63.8769 151.572 63.9231 151.509C63.8819 151.562 63.7916 151.651 63.9529 151.499C64.0863 151.353 64.2577 151.247 64.4479 151.193C64.5229 151.171 64.5989 151.154 64.674 151.134C64.865 151.081 64.4837 151.136 64.6791 151.13C64.7545 151.128 64.8308 151.13 64.9059 151.126C65.0976 151.118 64.7168 151.074 64.9005 151.12C64.9718 151.138 65.0425 151.156 65.1127 151.178C65.2654 151.226 65.0046 151.066 65.1081 151.186C65.2293 151.326 64.9807 151.049 65.1186 151.185C65.1872 151.252 65.2518 151.323 65.3122 151.398C65.5513 151.634 65.8737 151.766 66.2096 151.766C66.5455 151.766 66.8679 151.634 67.107 151.398C67.3379 151.157 67.4667 150.836 67.4667 150.502C67.4667 150.168 67.3379 149.847 67.107 149.605C65.8556 148.055 63.3837 148.438 62.1178 149.748C60.5034 151.419 61.1427 154.066 62.7131 155.524C64.4909 157.174 67.0088 157.288 69.2956 157.012C71.2282 156.827 73.1116 156.295 74.8553 155.442C76.5879 154.592 77.9429 153.129 78.6581 151.338C78.981 150.382 79.097 149.368 78.9984 148.364C78.8998 147.36 78.5888 146.388 78.0861 145.513C76.0671 141.721 71.8863 139.777 67.7539 139.44C65.6264 139.273 63.4868 139.53 61.4592 140.195C59.4316 140.86 57.5561 141.92 55.9413 143.314C52.8288 146.113 50.9122 150.001 50.5878 154.172C50.2271 158.497 51.9067 162.697 54.3555 166.188C56.9191 169.734 59.9784 172.895 63.4399 175.574C70.207 180.971 78.1449 184.711 86.6182 186.494C87.626 186.702 88.6393 186.88 89.658 187.028C89.9821 187.107 90.324 187.059 90.6141 186.895C90.9041 186.73 91.1204 186.461 91.2191 186.143C91.3061 185.819 91.2619 185.473 91.096 185.182C90.9301 184.89 90.6559 184.675 90.3327 184.583Z" fill="#3F3D56"/>
<path d="M211.273 129.479C200.206 129.323 189.173 129.604 178.176 130.321C174.416 130.566 171.164 131.894 171.164 134.125C171.164 135.99 174.391 138.175 178.176 137.928C189.168 137.211 200.2 136.93 211.273 137.086C220.3 137.214 220.295 129.607 211.273 129.479Z" fill="#CCCCCC"/>
<path d="M194.91 136.711C193.714 136.711 165.617 136.666 165.617 132.789C165.617 128.912 193.714 128.867 194.91 128.867C196.106 128.867 224.203 128.912 224.203 132.789C224.203 136.666 196.106 136.711 194.91 136.711ZM166.716 132.789C167.485 133.964 177.813 135.629 194.91 135.629C212.007 135.629 222.335 133.964 223.104 132.789C222.335 131.614 212.007 129.949 194.91 129.949C177.813 129.949 167.485 131.614 166.716 132.789Z" fill="#3F3D56"/>
<path d="M284.058 238.634C290.278 238.462 298.018 238.246 303.982 233.894C305.758 232.545 307.217 230.824 308.257 228.852C309.297 226.881 309.893 224.706 310.002 222.48C310.124 219.043 308.881 216.042 306.502 214.034C303.388 211.405 298.839 210.788 293.938 212.227L299.016 175.151L295.288 174.641L289.318 218.228L292.431 216.801C296.041 215.147 300.995 214.306 304.074 216.905C304.829 217.585 305.418 218.429 305.795 219.373C306.171 220.317 306.324 221.335 306.242 222.347C306.151 224.004 305.704 225.622 304.931 227.09C304.157 228.559 303.077 229.844 301.762 230.858C297.121 234.245 290.951 234.681 283.953 234.877L284.058 238.634Z" fill="#3F3D56"/>
<path d="M273.75 178.352H253.484V182.111H273.75V178.352Z" fill="#3F3D56"/>
<path d="M110.168 163.743C109.266 163.741 108.395 163.417 107.71 162.83C107.025 162.244 106.571 161.433 106.431 160.543L105.194 152.656C105.039 151.664 105.285 150.651 105.877 149.84C106.469 149.029 107.359 148.486 108.351 148.329L174.148 138.029C175.141 137.875 176.154 138.121 176.966 138.712C177.778 139.303 178.322 140.192 178.479 141.184L179.716 149.071C179.87 150.063 179.624 151.076 179.033 151.887C178.441 152.698 177.551 153.241 176.558 153.398L110.761 163.697C110.565 163.728 110.367 163.743 110.168 163.743Z" fill="#2F2E41"/>
<path d="M82.9394 71.3182C98.1887 71.3182 110.551 58.968 110.551 43.7333C110.551 28.4986 98.1887 16.1484 82.9394 16.1484C67.6901 16.1484 55.3281 28.4986 55.3281 43.7333C55.3281 58.968 67.6901 71.3182 82.9394 71.3182Z" fill="#B4B4B4"/>
<path d="M98.5656 50.8693C99.4481 50.5609 100.254 50.0674 100.93 49.4218C101.377 48.9615 101.718 48.4092 101.929 47.8035C102.139 47.1978 102.215 46.5533 102.151 45.9153C102.113 45.4605 101.971 45.0206 101.735 44.6299C101.499 44.2392 101.176 43.9082 100.791 43.663C99.7913 43.049 98.4709 43.0722 97.1378 43.6896L96.9839 32.9219L95.9013 32.9373L96.0821 45.5959L96.9063 45.0559C97.862 44.4307 99.2352 43.9773 100.223 44.5845C100.468 44.7452 100.672 44.9601 100.819 45.2124C100.967 45.4647 101.054 45.7476 101.075 46.0392C101.12 46.5145 101.063 46.9941 100.906 47.4452C100.75 47.8964 100.498 48.3085 100.167 48.6536C98.9935 49.8171 97.2563 50.207 95.2734 50.5635L95.4653 51.628C96.5194 51.4681 97.557 51.2142 98.5656 50.8693Z" fill="#2F2E41"/>
<path d="M108.141 32.1667L102.375 33.0391L102.537 34.1085L108.303 33.2361L108.141 32.1667Z" fill="#2F2E41"/>
<path d="M89.9379 34.9167L84.1719 35.7891L84.334 36.8585L90.1 35.9861L89.9379 34.9167Z" fill="#2F2E41"/>
<path d="M101.185 163.266C100.192 163.263 99.2236 162.959 98.4079 162.394C97.5922 161.828 96.9682 161.027 96.619 160.099L77.5818 109.165C75.255 102.918 75.5034 96.0041 78.2727 89.9402C81.042 83.8762 86.1059 79.1573 92.3534 76.8188L107.833 71.0443C108.431 70.8195 109.069 70.7151 109.708 70.7373C110.347 70.7595 110.975 70.9077 111.557 71.1734C112.137 71.4323 112.659 71.8042 113.094 72.2672C113.529 72.7302 113.866 73.2752 114.088 73.8701L149.353 140.39C149.582 140.989 149.69 141.629 149.67 142.27C149.651 142.912 149.505 143.543 149.24 144.129C148.976 144.714 148.598 145.241 148.129 145.679C147.66 146.118 147.109 146.46 146.507 146.684L102.888 162.956C102.344 163.16 101.767 163.265 101.185 163.266Z" fill="#2F2E41"/>
<path d="M103.133 72.7903L138.123 119.536L114.447 73.281C114.251 72.7412 113.951 72.2453 113.564 71.8215C113.176 71.3976 112.709 71.0542 112.189 70.8108C111.668 70.5674 111.105 70.4288 110.531 70.4029C109.957 70.377 109.384 70.4643 108.844 70.6598L103.133 72.7903Z" fill="#E6E6E6"/>
<path d="M158.537 108.293L96.0626 104.272C95.0778 104.209 94.1152 103.952 93.2297 103.517C92.3441 103.082 91.5531 102.477 90.9016 101.737C90.2501 100.996 89.751 100.135 89.4328 99.2017C89.1145 98.2685 88.9834 97.2818 89.0468 96.298C89.1102 95.3142 89.367 94.3525 89.8024 93.4678C90.2379 92.5832 90.8435 91.7928 91.5846 91.142C92.3258 90.4911 93.1881 89.9925 94.1221 89.6746C95.0562 89.3566 96.0438 89.2256 97.0285 89.289L159.503 93.3091C159.964 93.3387 160.415 93.4588 160.83 93.6625C161.245 93.8663 161.615 94.1496 161.92 94.4963C162.225 94.8431 162.459 95.2465 162.608 95.6836C162.757 96.1206 162.819 96.5826 162.789 97.0434L162.275 105.01C162.215 105.941 161.788 106.809 161.087 107.425C160.386 108.04 159.469 108.352 158.537 108.293Z" fill="#B4B4B4"/>
<path d="M141.845 110.871C141.763 110.871 141.68 110.869 141.597 110.864L90.2962 107.562C89.7996 107.53 89.3141 107.401 88.8675 107.182C88.4208 106.962 88.0218 106.657 87.6933 106.284C87.3647 105.91 87.113 105.476 86.9525 105.005C86.792 104.535 86.7258 104.037 86.7579 103.541L87.6351 89.9332C87.6671 89.437 87.7966 88.952 88.0163 88.5058C88.2359 88.0596 88.5413 87.6611 88.9152 87.3328C89.289 87.0046 89.7239 86.7531 90.195 86.5928C90.6661 86.4325 91.1643 86.3665 91.6609 86.3985L142.962 89.6995C143.964 89.7651 144.9 90.2254 145.563 90.9793C146.226 91.7332 146.563 92.7192 146.5 93.7209L145.623 107.329C145.574 108.058 145.316 108.758 144.88 109.344C144.443 109.93 143.847 110.378 143.161 110.634C142.74 110.791 142.295 110.872 141.845 110.871Z" fill="#2F2E41"/>
<path d="M82.6178 25.3892C86.2502 22.2681 91.2383 25.0601 95.4039 24.5713C99.3892 24.1037 102.536 20.5323 103.34 16.7381C104.278 12.3116 101.978 7.87679 98.5883 5.11691C94.8757 2.09416 89.9519 1.2264 85.286 1.78563C79.9382 2.42657 75.0475 4.91697 70.659 7.92923C66.4231 10.7467 62.5277 14.0444 59.0506 17.7566C55.9369 21.1921 53.2989 25.2871 52.4565 29.91C51.691 34.1113 52.2755 38.7669 54.7615 42.326C56.0798 44.1502 57.8463 45.6042 59.8908 46.5477C62.0225 47.5935 64.2964 48.3411 66.3617 49.5235C69.4843 51.3112 72.5193 55.0182 71.5411 58.8758C71.3314 59.7185 70.9175 60.4967 70.336 61.1421C69.6372 61.917 68.3768 60.893 69.0774 60.116C70.3079 58.7513 70.2594 56.9313 69.6037 55.302C68.8239 53.4661 67.4431 51.9491 65.6875 50.9997C63.5257 49.7649 61.139 49.0027 58.9233 47.878C56.8025 46.8506 54.9616 45.3264 53.5572 43.4353C50.9053 39.7535 50.1121 34.9619 50.7135 30.5294C51.3644 25.7326 53.8313 21.3738 56.9237 17.7211C60.2892 13.7459 64.4231 10.381 68.6463 7.35816C73.1778 4.11459 78.1843 1.37237 83.7243 0.380552C88.5266 -0.479198 93.7319 0.0501184 97.9313 2.66465C101.851 5.10515 104.857 9.30329 105.156 13.9943C105.263 16.1287 104.799 18.2531 103.812 20.1489C102.825 22.0447 101.349 23.6434 99.5383 24.7806C97.6798 25.8916 95.5191 26.3917 93.3609 26.2103C91.0537 26.0627 88.7443 25.3569 86.4223 25.5529C85.3716 25.6166 84.3703 26.0207 83.5702 26.7041C82.7766 27.386 81.8307 26.0655 82.6178 25.3892Z" fill="#2F2E41"/>
<path d="M400.353 322.999H0.642769C0.472125 322.998 0.308643 322.93 0.188154 322.81C0.0676652 322.689 0 322.525 0 322.355C0 322.184 0.0676652 322.021 0.188154 321.9C0.308643 321.78 0.472125 321.711 0.642769 321.711H400.353C400.524 321.711 400.688 321.779 400.809 321.9C400.93 322.02 400.998 322.184 400.998 322.355C400.998 322.526 400.93 322.69 400.809 322.81C400.688 322.931 400.524 322.999 400.353 322.999Z" fill="#3F3D56"/>
</g>
<defs>
<clipPath id="clip0_1052_2197">
<rect width="401" height="323" fill="white"/>
</clipPath>
</defs>
</svg>
