<svg width="123" height="120" viewBox="0 0 123 120" fill="none" xmlns="http://www.w3.org/2000/svg">
<path fill-rule="evenodd" clip-rule="evenodd" d="M3.00036 21.0189C3.78946 21.0189 4.56355 20.6755 5.12162 20.0742C5.68119 19.4745 6.00073 18.6442 6.00073 17.7946C6.00073 16.945 5.68119 16.1148 5.12162 15.515C4.56355 14.9137 3.78946 14.5703 3.00036 14.5703C2.20977 14.5703 1.43717 14.9137 0.877607 15.515C0.319539 16.1148 0 16.945 0 17.7946C0 18.6442 0.319539 19.4745 0.877607 20.0742C1.43717 20.6755 2.20977 21.0189 3.00036 21.0189Z" fill="#130D3A"/>
<path fill-rule="evenodd" clip-rule="evenodd" d="M35.9773 21.0189H35.9922C37.6458 21.0189 38.9851 19.5744 38.9851 17.7946C38.9851 16.0148 37.6458 14.5703 35.9922 14.5703H35.9773C34.3252 14.5703 32.9844 16.0148 32.9844 17.7946C32.9844 19.5744 34.3252 21.0189 35.9773 21.0189Z" fill="#130D3A"/>
<path fill-rule="evenodd" clip-rule="evenodd" d="M20.0085 21.0189H20.0235C21.6755 21.0189 23.0164 19.5744 23.0164 17.7946C23.0164 16.0148 21.6755 14.5703 20.0235 14.5703H20.0085C18.3564 14.5703 17.0156 16.0148 17.0156 17.7946C17.0156 19.5744 18.3564 21.0189 20.0085 21.0189Z" fill="#130D3A"/>
<path fill-rule="evenodd" clip-rule="evenodd" d="M53.0082 21.0189C53.7973 21.0189 54.5714 20.6755 55.1294 20.0742C55.689 19.4745 56.0085 18.6442 56.0085 17.7946C56.0085 16.945 55.689 16.1148 55.1294 15.515C54.5714 14.9137 53.7973 14.5703 53.0082 14.5703C52.2176 14.5703 51.445 14.9137 50.8854 15.515C50.3274 16.1148 50.0078 16.945 50.0078 17.7946C50.0078 18.6442 50.3274 19.4745 50.8854 20.0742C51.445 20.6755 52.2176 21.0189 53.0082 21.0189Z" fill="#130D3A"/>
<path fill-rule="evenodd" clip-rule="evenodd" d="M70.0394 21.0189C70.83 21.0189 71.6026 20.6755 72.1622 20.0742C72.7203 19.4745 73.0398 18.6442 73.0398 17.7946C73.0398 16.945 72.7203 16.1148 72.1622 15.515C71.6026 14.9137 70.83 14.5703 70.0394 14.5703C69.2503 14.5703 68.4762 14.9137 67.9182 15.515C67.3586 16.1148 67.0391 16.945 67.0391 17.7946C67.0391 18.6442 67.3586 19.4745 67.9182 20.0742C68.4762 20.6755 69.2503 21.0189 70.0394 21.0189Z" fill="#130D3A"/>
<path fill-rule="evenodd" clip-rule="evenodd" d="M102.993 21.0189H103.008C104.661 21.0189 106.001 19.5744 106.001 17.7946C106.001 16.0148 104.661 14.5703 103.008 14.5703H102.993C101.341 14.5703 100 16.0148 100 17.7946C100 19.5744 101.341 21.0189 102.993 21.0189Z" fill="#130D3A"/>
<path fill-rule="evenodd" clip-rule="evenodd" d="M85.9773 21.0189H85.9922C87.6443 21.0189 88.9851 19.5744 88.9851 17.7946C88.9851 16.0148 87.6443 14.5703 85.9922 14.5703H85.9773C84.3252 14.5703 82.9844 16.0148 82.9844 17.7946C82.9844 19.5744 84.3252 21.0189 85.9773 21.0189Z" fill="#130D3A"/>
<mask id="mask0_1609_3940" style="mask-type:luminance" maskUnits="userSpaceOnUse" x="116" y="14" width="7" height="8">
<path fill-rule="evenodd" clip-rule="evenodd" d="M116.328 14.3438H122.729V21.2223H116.328V14.3438Z" fill="white"/>
</mask>
<g mask="url(#mask0_1609_3940)">
<path fill-rule="evenodd" clip-rule="evenodd" d="M119.529 21.2223C120.37 21.2223 121.196 20.856 121.791 20.2146C122.388 19.5749 122.729 18.6893 122.729 17.783C122.729 16.8768 122.388 15.9912 121.791 15.3515C121.196 14.71 120.37 14.3438 119.529 14.3438C118.685 14.3438 117.861 14.71 117.264 15.3515C116.669 15.9912 116.328 16.8768 116.328 17.783C116.328 18.6893 116.669 19.5749 117.264 20.2146C117.861 20.856 118.685 21.2223 119.529 21.2223Z" fill="#130D3A"/>
</g>
<path fill-rule="evenodd" clip-rule="evenodd" d="M3.00036 7.05799C3.78946 7.05799 4.56355 6.7146 5.12162 6.11326C5.68119 5.51354 6.00073 4.68167 6.00073 3.83368C6.00073 2.98408 5.68119 2.15382 5.12162 1.55248C4.56355 0.952763 3.78946 0.609375 3.00036 0.609375C2.20977 0.609375 1.43717 0.952763 0.877607 1.55248C0.319539 2.15382 0 2.98408 0 3.83368C0 4.68167 0.319539 5.51354 0.877607 6.11326C1.43717 6.7146 2.20977 7.05799 3.00036 7.05799Z" fill="#130D3A"/>
<path fill-rule="evenodd" clip-rule="evenodd" d="M35.9773 7.05799H35.9922C37.6458 7.05799 38.9851 5.6135 38.9851 3.83368C38.9851 2.05386 37.6458 0.609375 35.9922 0.609375H35.9773C34.3252 0.609375 32.9844 2.05386 32.9844 3.83368C32.9844 5.6135 34.3252 7.05799 35.9773 7.05799Z" fill="#130D3A"/>
<path fill-rule="evenodd" clip-rule="evenodd" d="M20.0085 7.05799H20.0235C21.6755 7.05799 23.0164 5.6135 23.0164 3.83368C23.0164 2.05386 21.6755 0.609375 20.0235 0.609375H20.0085C18.3564 0.609375 17.0156 2.05386 17.0156 3.83368C17.0156 5.6135 18.3564 7.05799 20.0085 7.05799Z" fill="#130D3A"/>
<path fill-rule="evenodd" clip-rule="evenodd" d="M53.0082 7.05799C53.7973 7.05799 54.5714 6.7146 55.1294 6.11326C55.689 5.51354 56.0085 4.68167 56.0085 3.83368C56.0085 2.98408 55.689 2.15382 55.1294 1.55248C54.5714 0.952763 53.7973 0.609375 53.0082 0.609375C52.2176 0.609375 51.445 0.952763 50.8854 1.55248C50.3274 2.15382 50.0078 2.98408 50.0078 3.83368C50.0078 4.68167 50.3274 5.51354 50.8854 6.11326C51.445 6.7146 52.2176 7.05799 53.0082 7.05799Z" fill="#130D3A"/>
<path fill-rule="evenodd" clip-rule="evenodd" d="M70.0394 7.05799C70.83 7.05799 71.6026 6.7146 72.1622 6.11326C72.7203 5.51354 73.0398 4.68167 73.0398 3.83368C73.0398 2.98408 72.7203 2.15382 72.1622 1.55248C71.6026 0.952763 70.83 0.609375 70.0394 0.609375C69.2503 0.609375 68.4762 0.952763 67.9182 1.55248C67.3586 2.15382 67.0391 2.98408 67.0391 3.83368C67.0391 4.68167 67.3586 5.51354 67.9182 6.11326C68.4762 6.7146 69.2503 7.05799 70.0394 7.05799Z" fill="#130D3A"/>
<path fill-rule="evenodd" clip-rule="evenodd" d="M102.993 7.05799H103.008C104.661 7.05799 106.001 5.6135 106.001 3.83368C106.001 2.05386 104.661 0.609375 103.008 0.609375H102.993C101.341 0.609375 100 2.05386 100 3.83368C100 5.6135 101.341 7.05799 102.993 7.05799Z" fill="#130D3A"/>
<path fill-rule="evenodd" clip-rule="evenodd" d="M85.9773 7.05799H85.9922C87.6443 7.05799 88.9851 5.6135 88.9851 3.83368C88.9851 2.05386 87.6443 0.609375 85.9922 0.609375H85.9773C84.3252 0.609375 82.9844 2.05386 82.9844 3.83368C82.9844 5.6135 84.3252 7.05799 85.9773 7.05799Z" fill="#130D3A"/>
<mask id="mask1_1609_3940" style="mask-type:luminance" maskUnits="userSpaceOnUse" x="116" y="0" width="7" height="7">
<path fill-rule="evenodd" clip-rule="evenodd" d="M116.328 0H122.729V6.87852H116.328V0Z" fill="white"/>
</mask>
<g mask="url(#mask1_1609_3940)">
<path fill-rule="evenodd" clip-rule="evenodd" d="M119.529 6.87852C120.37 6.87852 121.196 6.51224 121.791 5.87081C122.388 5.23111 122.729 4.34378 122.729 3.43926C122.729 2.53301 122.388 1.6474 121.791 1.00598C121.196 0.366281 120.37 0 119.529 0C118.685 0 117.861 0.366281 117.264 1.00598C116.669 1.6474 116.328 2.53301 116.328 3.43926C116.328 4.34378 116.669 5.23111 117.264 5.87081C117.861 6.51224 118.685 6.87852 119.529 6.87852Z" fill="#130D3A"/>
</g>
<path fill-rule="evenodd" clip-rule="evenodd" d="M3.00036 34.9955C3.78946 34.9955 4.56355 34.6521 5.12162 34.0508C5.68119 33.451 6.00073 32.6208 6.00073 31.7712C6.00073 30.9232 5.68119 30.0913 5.12162 29.4916C4.56355 28.8903 3.78946 28.5469 3.00036 28.5469C2.20977 28.5469 1.43717 28.8903 0.877607 29.4916C0.319539 30.0913 0 30.9232 0 31.7712C0 32.6208 0.319539 33.451 0.877607 34.0508C1.43717 34.6521 2.20977 34.9955 3.00036 34.9955Z" fill="#130D3A"/>
<path fill-rule="evenodd" clip-rule="evenodd" d="M35.9773 34.9955H35.9922C37.6458 34.9955 38.9851 33.551 38.9851 31.7712C38.9851 29.9914 37.6458 28.5469 35.9922 28.5469H35.9773C34.3252 28.5469 32.9844 29.9914 32.9844 31.7712C32.9844 33.551 34.3252 34.9955 35.9773 34.9955Z" fill="#130D3A"/>
<path fill-rule="evenodd" clip-rule="evenodd" d="M20.0085 34.9955H20.0235C21.6755 34.9955 23.0164 33.551 23.0164 31.7712C23.0164 29.9914 21.6755 28.5469 20.0235 28.5469H20.0085C18.3564 28.5469 17.0156 29.9914 17.0156 31.7712C17.0156 33.551 18.3564 34.9955 20.0085 34.9955Z" fill="#130D3A"/>
<path fill-rule="evenodd" clip-rule="evenodd" d="M53.0082 34.9955C53.7973 34.9955 54.5714 34.6521 55.1294 34.0508C55.689 33.451 56.0085 32.6208 56.0085 31.7712C56.0085 30.9232 55.689 30.0913 55.1294 29.4916C54.5714 28.8903 53.7973 28.5469 53.0082 28.5469C52.2176 28.5469 51.445 28.8903 50.8854 29.4916C50.3274 30.0913 50.0078 30.9232 50.0078 31.7712C50.0078 32.6208 50.3274 33.451 50.8854 34.0508C51.445 34.6521 52.2176 34.9955 53.0082 34.9955Z" fill="#130D3A"/>
<path fill-rule="evenodd" clip-rule="evenodd" d="M70.0394 34.9955C70.83 34.9955 71.6026 34.6521 72.1622 34.0508C72.7203 33.451 73.0398 32.6208 73.0398 31.7712C73.0398 30.9232 72.7203 30.0913 72.1622 29.4916C71.6026 28.8903 70.83 28.5469 70.0394 28.5469C69.2503 28.5469 68.4762 28.8903 67.9182 29.4916C67.3586 30.0913 67.0391 30.9232 67.0391 31.7712C67.0391 32.6208 67.3586 33.451 67.9182 34.0508C68.4762 34.6521 69.2503 34.9955 70.0394 34.9955Z" fill="#130D3A"/>
<path fill-rule="evenodd" clip-rule="evenodd" d="M102.993 34.9955H103.008C104.661 34.9955 106.001 33.551 106.001 31.7712C106.001 29.9914 104.661 28.5469 103.008 28.5469H102.993C101.341 28.5469 100 29.9914 100 31.7712C100 33.551 101.341 34.9955 102.993 34.9955Z" fill="#130D3A"/>
<path fill-rule="evenodd" clip-rule="evenodd" d="M85.9773 34.9955H85.9922C87.6443 34.9955 88.9851 33.551 88.9851 31.7712C88.9851 29.9914 87.6443 28.5469 85.9922 28.5469H85.9773C84.3252 28.5469 82.9844 29.9914 82.9844 31.7712C82.9844 33.551 84.3252 34.9955 85.9773 34.9955Z" fill="#130D3A"/>
<mask id="mask2_1609_3940" style="mask-type:luminance" maskUnits="userSpaceOnUse" x="116" y="28" width="7" height="8">
<path fill-rule="evenodd" clip-rule="evenodd" d="M116.328 28.6719H122.729V35.5504H116.328V28.6719Z" fill="white"/>
</mask>
<g mask="url(#mask2_1609_3940)">
<path fill-rule="evenodd" clip-rule="evenodd" d="M119.529 35.5504C120.37 35.5504 121.196 35.1841 121.791 34.5427C122.388 33.903 122.729 33.0174 122.729 32.1111C122.729 31.2066 122.388 30.3193 121.791 29.6796C121.196 29.0382 120.37 28.6719 119.529 28.6719C118.685 28.6719 117.861 29.0382 117.264 29.6796C116.669 30.3193 116.328 31.2066 116.328 32.1111C116.328 33.0174 116.669 33.903 117.264 34.5427C117.861 35.1841 118.685 35.5504 119.529 35.5504Z" fill="#130D3A"/>
</g>
<path fill-rule="evenodd" clip-rule="evenodd" d="M3.00036 48.9564C3.78946 48.9564 4.56355 48.613 5.12162 48.0117C5.68119 47.412 6.00073 46.5817 6.00073 45.7321C6.00073 44.8825 5.68119 44.0523 5.12162 43.4525C4.56355 42.8512 3.78946 42.5078 3.00036 42.5078C2.20977 42.5078 1.43717 42.8512 0.877607 43.4525C0.319539 44.0523 0 44.8825 0 45.7321C0 46.5817 0.319539 47.412 0.877607 48.0117C1.43717 48.613 2.20977 48.9564 3.00036 48.9564Z" fill="#130D3A"/>
<path fill-rule="evenodd" clip-rule="evenodd" d="M35.9773 48.9564H35.9922C37.6458 48.9564 38.9851 47.5119 38.9851 45.7321C38.9851 43.9523 37.6458 42.5078 35.9922 42.5078H35.9773C34.3252 42.5078 32.9844 43.9523 32.9844 45.7321C32.9844 47.5119 34.3252 48.9564 35.9773 48.9564Z" fill="#130D3A"/>
<path fill-rule="evenodd" clip-rule="evenodd" d="M20.0085 48.9564H20.0235C21.6755 48.9564 23.0164 47.5119 23.0164 45.7321C23.0164 43.9523 21.6755 42.5078 20.0235 42.5078H20.0085C18.3564 42.5078 17.0156 43.9523 17.0156 45.7321C17.0156 47.5119 18.3564 48.9564 20.0085 48.9564Z" fill="#130D3A"/>
<path fill-rule="evenodd" clip-rule="evenodd" d="M53.0082 48.9564C53.7973 48.9564 54.5714 48.613 55.1294 48.0117C55.689 47.412 56.0085 46.5817 56.0085 45.7321C56.0085 44.8825 55.689 44.0523 55.1294 43.4525C54.5714 42.8512 53.7973 42.5078 53.0082 42.5078C52.2176 42.5078 51.445 42.8512 50.8854 43.4525C50.3274 44.0523 50.0078 44.8825 50.0078 45.7321C50.0078 46.5817 50.3274 47.412 50.8854 48.0117C51.445 48.613 52.2176 48.9564 53.0082 48.9564Z" fill="#130D3A"/>
<path fill-rule="evenodd" clip-rule="evenodd" d="M70.0394 48.9564C70.83 48.9564 71.6026 48.613 72.1622 48.0117C72.7203 47.412 73.0398 46.5817 73.0398 45.7321C73.0398 44.8825 72.7203 44.0523 72.1622 43.4525C71.6026 42.8512 70.83 42.5078 70.0394 42.5078C69.2503 42.5078 68.4762 42.8512 67.9182 43.4525C67.3586 44.0523 67.0391 44.8825 67.0391 45.7321C67.0391 46.5817 67.3586 47.412 67.9182 48.0117C68.4762 48.613 69.2503 48.9564 70.0394 48.9564Z" fill="#130D3A"/>
<path fill-rule="evenodd" clip-rule="evenodd" d="M102.993 48.9564H103.008C104.661 48.9564 106.001 47.5119 106.001 45.7321C106.001 43.9523 104.661 42.5078 103.008 42.5078H102.993C101.341 42.5078 100 43.9523 100 45.7321C100 47.5119 101.341 48.9564 102.993 48.9564Z" fill="#130D3A"/>
<path fill-rule="evenodd" clip-rule="evenodd" d="M85.9773 48.9564H85.9922C87.6443 48.9564 88.9851 47.5119 88.9851 45.7321C88.9851 43.9523 87.6443 42.5078 85.9922 42.5078H85.9773C84.3252 42.5078 82.9844 43.9523 82.9844 45.7321C82.9844 47.5119 84.3252 48.9564 85.9773 48.9564Z" fill="#130D3A"/>
<mask id="mask3_1609_3940" style="mask-type:luminance" maskUnits="userSpaceOnUse" x="116" y="43" width="7" height="7">
<path fill-rule="evenodd" clip-rule="evenodd" d="M116.328 43.0234H122.729V49.902H116.328V43.0234Z" fill="white"/>
</mask>
<g mask="url(#mask3_1609_3940)">
<path fill-rule="evenodd" clip-rule="evenodd" d="M119.529 49.902C120.37 49.902 121.196 49.5357 121.791 48.8943C122.388 48.2545 122.729 47.3689 122.729 46.4627C122.729 45.5565 122.388 44.6708 121.791 44.0311C121.196 43.3897 120.37 43.0234 119.529 43.0234C118.685 43.0234 117.861 43.3897 117.264 44.0311C116.669 44.6708 116.328 45.5565 116.328 46.4627C116.328 47.3689 116.669 48.2545 117.264 48.8943C117.861 49.5357 118.685 49.902 119.529 49.902Z" fill="#130D3A"/>
</g>
<path fill-rule="evenodd" clip-rule="evenodd" d="M3.00036 63.9799C3.78946 63.9799 4.56355 63.6365 5.12162 63.0351C5.68119 62.4354 6.00073 61.6052 6.00073 60.7556C6.00073 59.9076 5.68119 59.0757 5.12162 58.476C4.56355 57.8746 3.78946 57.5312 3.00036 57.5312C2.20977 57.5312 1.43717 57.8746 0.877607 58.476C0.319539 59.0757 0 59.9076 0 60.7556C0 61.6052 0.319539 62.4354 0.877607 63.0351C1.43717 63.6365 2.20977 63.9799 3.00036 63.9799Z" fill="#130D3A"/>
<path fill-rule="evenodd" clip-rule="evenodd" d="M35.9773 63.9799H35.9922C37.6458 63.9799 38.9851 62.5354 38.9851 60.7556C38.9851 58.9757 37.6458 57.5312 35.9922 57.5312H35.9773C34.3252 57.5312 32.9844 58.9757 32.9844 60.7556C32.9844 62.5354 34.3252 63.9799 35.9773 63.9799Z" fill="#130D3A"/>
<path fill-rule="evenodd" clip-rule="evenodd" d="M20.0085 63.9799H20.0235C21.6755 63.9799 23.0164 62.5354 23.0164 60.7556C23.0164 58.9757 21.6755 57.5312 20.0235 57.5312H20.0085C18.3564 57.5312 17.0156 58.9757 17.0156 60.7556C17.0156 62.5354 18.3564 63.9799 20.0085 63.9799Z" fill="#130D3A"/>
<path fill-rule="evenodd" clip-rule="evenodd" d="M53.0082 63.9799C53.7973 63.9799 54.5714 63.6365 55.1294 63.0351C55.689 62.4354 56.0085 61.6052 56.0085 60.7556C56.0085 59.9076 55.689 59.0757 55.1294 58.476C54.5714 57.8746 53.7973 57.5312 53.0082 57.5312C52.2176 57.5312 51.445 57.8746 50.8854 58.476C50.3274 59.0757 50.0078 59.9076 50.0078 60.7556C50.0078 61.6052 50.3274 62.4354 50.8854 63.0351C51.445 63.6365 52.2176 63.9799 53.0082 63.9799Z" fill="#130D3A"/>
<path fill-rule="evenodd" clip-rule="evenodd" d="M70.0394 63.9799C70.83 63.9799 71.6026 63.6365 72.1622 63.0351C72.7203 62.4354 73.0398 61.6052 73.0398 60.7556C73.0398 59.9076 72.7203 59.0757 72.1622 58.476C71.6026 57.8746 70.83 57.5312 70.0394 57.5312C69.2503 57.5312 68.4762 57.8746 67.9182 58.476C67.3586 59.0757 67.0391 59.9076 67.0391 60.7556C67.0391 61.6052 67.3586 62.4354 67.9182 63.0351C68.4762 63.6365 69.2503 63.9799 70.0394 63.9799Z" fill="#130D3A"/>
<path fill-rule="evenodd" clip-rule="evenodd" d="M102.993 63.9799H103.008C104.661 63.9799 106.001 62.5354 106.001 60.7556C106.001 58.9757 104.661 57.5312 103.008 57.5312H102.993C101.341 57.5312 100 58.9757 100 60.7556C100 62.5354 101.341 63.9799 102.993 63.9799Z" fill="#130D3A"/>
<path fill-rule="evenodd" clip-rule="evenodd" d="M85.9773 63.9799H85.9922C87.6443 63.9799 88.9851 62.5354 88.9851 60.7556C88.9851 58.9757 87.6443 57.5312 85.9922 57.5312H85.9773C84.3252 57.5312 82.9844 58.9757 82.9844 60.7556C82.9844 62.5354 84.3252 63.9799 85.9773 63.9799Z" fill="#130D3A"/>
<mask id="mask4_1609_3940" style="mask-type:luminance" maskUnits="userSpaceOnUse" x="116" y="56" width="7" height="8">
<path fill-rule="evenodd" clip-rule="evenodd" d="M116.328 56.7031H122.729V63.5816H116.328V56.7031Z" fill="white"/>
</mask>
<g mask="url(#mask4_1609_3940)">
<path fill-rule="evenodd" clip-rule="evenodd" d="M119.529 63.5816C120.37 63.5816 121.196 63.2154 121.791 62.5739C122.388 61.9342 122.729 61.0486 122.729 60.1424C122.729 59.2379 122.388 58.3505 121.791 57.7108C121.196 57.0694 120.37 56.7031 119.529 56.7031C118.685 56.7031 117.861 57.0694 117.264 57.7108C116.669 58.3505 116.328 59.2379 116.328 60.1424C116.328 61.0486 116.669 61.9342 117.264 62.5739C117.861 63.2154 118.685 63.5816 119.529 63.5816Z" fill="#130D3A"/>
</g>
<path fill-rule="evenodd" clip-rule="evenodd" d="M3.00036 77.9877C3.78946 77.9877 4.56355 77.6443 5.12162 77.0446C5.68119 76.4432 6.00073 75.613 6.00073 74.7634C6.00073 73.9154 5.68119 73.0835 5.12162 72.4838C4.56355 71.8825 3.78946 71.5391 3.00036 71.5391C2.20977 71.5391 1.43717 71.8825 0.877607 72.4838C0.319539 73.0835 0 73.9154 0 74.7634C0 75.613 0.319539 76.4432 0.877607 77.0446C1.43717 77.6443 2.20977 77.9877 3.00036 77.9877Z" fill="#130D3A"/>
<path fill-rule="evenodd" clip-rule="evenodd" d="M35.9773 77.9877H35.9922C37.6458 77.9877 38.9851 76.5432 38.9851 74.7634C38.9851 72.9836 37.6458 71.5391 35.9922 71.5391H35.9773C34.3252 71.5391 32.9844 72.9836 32.9844 74.7634C32.9844 76.5432 34.3252 77.9877 35.9773 77.9877Z" fill="#130D3A"/>
<path fill-rule="evenodd" clip-rule="evenodd" d="M20.0085 77.9877H20.0235C21.6755 77.9877 23.0164 76.5432 23.0164 74.7634C23.0164 72.9836 21.6755 71.5391 20.0235 71.5391H20.0085C18.3564 71.5391 17.0156 72.9836 17.0156 74.7634C17.0156 76.5432 18.3564 77.9877 20.0085 77.9877Z" fill="#130D3A"/>
<path fill-rule="evenodd" clip-rule="evenodd" d="M53.0082 77.9877C53.7973 77.9877 54.5714 77.6443 55.1294 77.0446C55.689 76.4432 56.0085 75.613 56.0085 74.7634C56.0085 73.9154 55.689 73.0835 55.1294 72.4838C54.5714 71.8825 53.7973 71.5391 53.0082 71.5391C52.2176 71.5391 51.445 71.8825 50.8854 72.4838C50.3274 73.0835 50.0078 73.9154 50.0078 74.7634C50.0078 75.613 50.3274 76.4432 50.8854 77.0446C51.445 77.6443 52.2176 77.9877 53.0082 77.9877Z" fill="#130D3A"/>
<path fill-rule="evenodd" clip-rule="evenodd" d="M70.0394 77.9877C70.83 77.9877 71.6026 77.6443 72.1622 77.0446C72.7203 76.4432 73.0398 75.613 73.0398 74.7634C73.0398 73.9154 72.7203 73.0835 72.1622 72.4838C71.6026 71.8825 70.83 71.5391 70.0394 71.5391C69.2503 71.5391 68.4762 71.8825 67.9182 72.4838C67.3586 73.0835 67.0391 73.9154 67.0391 74.7634C67.0391 75.613 67.3586 76.4432 67.9182 77.0446C68.4762 77.6443 69.2503 77.9877 70.0394 77.9877Z" fill="#130D3A"/>
<path fill-rule="evenodd" clip-rule="evenodd" d="M102.993 77.9877H103.008C104.661 77.9877 106.001 76.5432 106.001 74.7634C106.001 72.9836 104.661 71.5391 103.008 71.5391H102.993C101.341 71.5391 100 72.9836 100 74.7634C100 76.5432 101.341 77.9877 102.993 77.9877Z" fill="#130D3A"/>
<path fill-rule="evenodd" clip-rule="evenodd" d="M85.9773 77.9877H85.9922C87.6443 77.9877 88.9851 76.5432 88.9851 74.7634C88.9851 72.9836 87.6443 71.5391 85.9922 71.5391H85.9773C84.3252 71.5391 82.9844 72.9836 82.9844 74.7634C82.9844 76.5432 84.3252 77.9877 85.9773 77.9877Z" fill="#130D3A"/>
<mask id="mask5_1609_3940" style="mask-type:luminance" maskUnits="userSpaceOnUse" x="116" y="71" width="7" height="7">
<path fill-rule="evenodd" clip-rule="evenodd" d="M116.328 71.0469H122.729V77.9254H116.328V71.0469Z" fill="white"/>
</mask>
<g mask="url(#mask5_1609_3940)">
<path fill-rule="evenodd" clip-rule="evenodd" d="M119.529 77.9254C120.37 77.9254 121.196 77.5591 121.791 76.9194C122.388 76.278 122.729 75.3924 122.729 74.4861C122.729 73.5816 122.388 72.6943 121.791 72.0546C121.196 71.4132 120.37 71.0469 119.529 71.0469C118.685 71.0469 117.861 71.4132 117.264 72.0546C116.669 72.6943 116.328 73.5816 116.328 74.4861C116.328 75.3924 116.669 76.278 117.264 76.9194C117.861 77.5591 118.685 77.9254 119.529 77.9254Z" fill="#130D3A"/>
</g>
<path fill-rule="evenodd" clip-rule="evenodd" d="M3.00036 91.9486C3.78946 91.9486 4.56355 91.6052 5.12162 91.0039C5.68119 90.4042 6.00073 89.5739 6.00073 88.7243C6.00073 87.8763 5.68119 87.0444 5.12162 86.4447C4.56355 85.8434 3.78946 85.5 3.00036 85.5C2.20977 85.5 1.43717 85.8434 0.877607 86.4447C0.319539 87.0444 0 87.8763 0 88.7243C0 89.5739 0.319539 90.4042 0.877607 91.0039C1.43717 91.6052 2.20977 91.9486 3.00036 91.9486Z" fill="#130D3A"/>
<path fill-rule="evenodd" clip-rule="evenodd" d="M35.9773 91.9486H35.9922C37.6458 91.9486 38.9851 90.5041 38.9851 88.7243C38.9851 86.9445 37.6458 85.5 35.9922 85.5H35.9773C34.3252 85.5 32.9844 86.9445 32.9844 88.7243C32.9844 90.5041 34.3252 91.9486 35.9773 91.9486Z" fill="#130D3A"/>
<path fill-rule="evenodd" clip-rule="evenodd" d="M20.0085 91.9486H20.0235C21.6755 91.9486 23.0164 90.5041 23.0164 88.7243C23.0164 86.9445 21.6755 85.5 20.0235 85.5H20.0085C18.3564 85.5 17.0156 86.9445 17.0156 88.7243C17.0156 90.5041 18.3564 91.9486 20.0085 91.9486Z" fill="#130D3A"/>
<path fill-rule="evenodd" clip-rule="evenodd" d="M53.0082 91.9486C53.7973 91.9486 54.5714 91.6052 55.1294 91.0039C55.689 90.4042 56.0085 89.5739 56.0085 88.7243C56.0085 87.8763 55.689 87.0444 55.1294 86.4447C54.5714 85.8434 53.7973 85.5 53.0082 85.5C52.2176 85.5 51.445 85.8434 50.8854 86.4447C50.3274 87.0444 50.0078 87.8763 50.0078 88.7243C50.0078 89.5739 50.3274 90.4042 50.8854 91.0039C51.445 91.6052 52.2176 91.9486 53.0082 91.9486Z" fill="#130D3A"/>
<path fill-rule="evenodd" clip-rule="evenodd" d="M70.0394 91.9486C70.83 91.9486 71.6026 91.6052 72.1622 91.0039C72.7203 90.4042 73.0398 89.5739 73.0398 88.7243C73.0398 87.8763 72.7203 87.0444 72.1622 86.4447C71.6026 85.8434 70.83 85.5 70.0394 85.5C69.2503 85.5 68.4762 85.8434 67.9182 86.4447C67.3586 87.0444 67.0391 87.8763 67.0391 88.7243C67.0391 89.5739 67.3586 90.4042 67.9182 91.0039C68.4762 91.6052 69.2503 91.9486 70.0394 91.9486Z" fill="#130D3A"/>
<path fill-rule="evenodd" clip-rule="evenodd" d="M102.993 91.9486H103.008C104.661 91.9486 106.001 90.5041 106.001 88.7243C106.001 86.9445 104.661 85.5 103.008 85.5H102.993C101.341 85.5 100 86.9445 100 88.7243C100 90.5041 101.341 91.9486 102.993 91.9486Z" fill="#130D3A"/>
<path fill-rule="evenodd" clip-rule="evenodd" d="M85.9773 91.9486H85.9922C87.6443 91.9486 88.9851 90.5041 88.9851 88.7243C88.9851 86.9445 87.6443 85.5 85.9922 85.5H85.9773C84.3252 85.5 82.9844 86.9445 82.9844 88.7243C82.9844 90.5041 84.3252 91.9486 85.9773 91.9486Z" fill="#130D3A"/>
<mask id="mask6_1609_3940" style="mask-type:luminance" maskUnits="userSpaceOnUse" x="116" y="85" width="7" height="8">
<path fill-rule="evenodd" clip-rule="evenodd" d="M116.328 85.4062H122.729V92.2848H116.328V85.4062Z" fill="white"/>
</mask>
<g mask="url(#mask6_1609_3940)">
<path fill-rule="evenodd" clip-rule="evenodd" d="M119.529 92.2848C120.37 92.2848 121.196 91.9185 121.791 91.2771C122.388 90.6374 122.729 89.7518 122.729 88.8455C122.729 87.941 122.388 87.0537 121.791 86.414C121.196 85.7725 120.37 85.4062 119.529 85.4062C118.685 85.4062 117.861 85.7725 117.264 86.414C116.669 87.0537 116.328 87.941 116.328 88.8455C116.328 89.7518 116.669 90.6374 117.264 91.2771C117.861 91.9185 118.685 92.2848 119.529 92.2848Z" fill="#130D3A"/>
</g>
<path fill-rule="evenodd" clip-rule="evenodd" d="M3.00036 105.925C3.78946 105.925 4.56355 105.582 5.12162 104.982C5.68119 104.381 6.00073 103.55 6.00073 102.701C6.00073 101.853 5.68119 101.021 5.12162 100.421C4.56355 99.82 3.78946 99.4766 3.00036 99.4766C2.20977 99.4766 1.43717 99.82 0.877607 100.421C0.319539 101.021 0 101.853 0 102.701C0 103.55 0.319539 104.381 0.877607 104.982C1.43717 105.582 2.20977 105.925 3.00036 105.925Z" fill="#130D3A"/>
<path fill-rule="evenodd" clip-rule="evenodd" d="M35.9773 105.925H35.9922C37.6458 105.925 38.9851 104.482 38.9851 102.701C38.9851 100.921 37.6458 99.4766 35.9922 99.4766H35.9773C34.3252 99.4766 32.9844 100.921 32.9844 102.701C32.9844 104.482 34.3252 105.925 35.9773 105.925Z" fill="#130D3A"/>
<path fill-rule="evenodd" clip-rule="evenodd" d="M20.0085 105.925H20.0235C21.6755 105.925 23.0164 104.482 23.0164 102.701C23.0164 100.921 21.6755 99.4766 20.0235 99.4766H20.0085C18.3564 99.4766 17.0156 100.921 17.0156 102.701C17.0156 104.482 18.3564 105.925 20.0085 105.925Z" fill="#130D3A"/>
<path fill-rule="evenodd" clip-rule="evenodd" d="M53.0082 105.925C53.7973 105.925 54.5714 105.582 55.1294 104.982C55.689 104.381 56.0085 103.55 56.0085 102.701C56.0085 101.853 55.689 101.021 55.1294 100.421C54.5714 99.82 53.7973 99.4766 53.0082 99.4766C52.2176 99.4766 51.445 99.82 50.8854 100.421C50.3274 101.021 50.0078 101.853 50.0078 102.701C50.0078 103.55 50.3274 104.381 50.8854 104.982C51.445 105.582 52.2176 105.925 53.0082 105.925Z" fill="#130D3A"/>
<path fill-rule="evenodd" clip-rule="evenodd" d="M70.0394 105.925C70.83 105.925 71.6026 105.582 72.1622 104.982C72.7203 104.381 73.0398 103.55 73.0398 102.701C73.0398 101.853 72.7203 101.021 72.1622 100.421C71.6026 99.82 70.83 99.4766 70.0394 99.4766C69.2503 99.4766 68.4762 99.82 67.9182 100.421C67.3586 101.021 67.0391 101.853 67.0391 102.701C67.0391 103.55 67.3586 104.381 67.9182 104.982C68.4762 105.582 69.2503 105.925 70.0394 105.925Z" fill="#130D3A"/>
<path fill-rule="evenodd" clip-rule="evenodd" d="M102.993 105.925H103.008C104.661 105.925 106.001 104.482 106.001 102.701C106.001 100.921 104.661 99.4766 103.008 99.4766H102.993C101.341 99.4766 100 100.921 100 102.701C100 104.482 101.341 105.925 102.993 105.925Z" fill="#130D3A"/>
<path fill-rule="evenodd" clip-rule="evenodd" d="M85.9773 105.925H85.9922C87.6443 105.925 88.9851 104.482 88.9851 102.701C88.9851 100.921 87.6443 99.4766 85.9922 99.4766H85.9773C84.3252 99.4766 82.9844 100.921 82.9844 102.701C82.9844 104.482 84.3252 105.925 85.9773 105.925Z" fill="#130D3A"/>
<mask id="mask7_1609_3940" style="mask-type:luminance" maskUnits="userSpaceOnUse" x="116" y="99" width="7" height="8">
<path fill-rule="evenodd" clip-rule="evenodd" d="M116.328 99.7344H122.729V106.613H116.328V99.7344Z" fill="white"/>
</mask>
<g mask="url(#mask7_1609_3940)">
<path fill-rule="evenodd" clip-rule="evenodd" d="M119.529 106.613C120.37 106.613 121.196 106.247 121.791 105.607C122.388 104.965 122.729 104.08 122.729 103.174C122.729 102.269 122.388 101.382 121.791 100.742C121.196 100.101 120.37 99.7344 119.529 99.7344C118.685 99.7344 117.861 100.101 117.264 100.742C116.669 101.382 116.328 102.269 116.328 103.174C116.328 104.08 116.669 104.965 117.264 105.607C117.861 106.247 118.685 106.613 119.529 106.613Z" fill="#130D3A"/>
</g>
<mask id="mask8_1609_3940" style="mask-type:luminance" maskUnits="userSpaceOnUse" x="0" y="113" width="6" height="7">
<path fill-rule="evenodd" clip-rule="evenodd" d="M0 113.438H6.00073V119.886H0V113.438Z" fill="white"/>
</mask>
<g mask="url(#mask8_1609_3940)">
<path fill-rule="evenodd" clip-rule="evenodd" d="M3.00036 119.886C3.78946 119.886 4.56355 119.543 5.12162 118.941C5.68119 118.342 6.00073 117.51 6.00073 116.662C6.00073 115.812 5.68119 114.982 5.12162 114.381C4.56355 113.781 3.78946 113.438 3.00036 113.438C2.20977 113.438 1.43717 113.781 0.877607 114.381C0.319539 114.982 0 115.812 0 116.662C0 117.51 0.319539 118.342 0.877607 118.941C1.43717 119.543 2.20977 119.886 3.00036 119.886Z" fill="#130D3A"/>
</g>
<mask id="mask9_1609_3940" style="mask-type:luminance" maskUnits="userSpaceOnUse" x="32" y="113" width="8" height="7">
<path fill-rule="evenodd" clip-rule="evenodd" d="M32.9766 113.438H39.3933V119.886H32.9766V113.438Z" fill="white"/>
</mask>
<g mask="url(#mask9_1609_3940)">
<path fill-rule="evenodd" clip-rule="evenodd" d="M36.177 119.886H36.193C37.9612 119.886 39.3933 118.442 39.3933 116.662C39.3933 114.88 37.9612 113.438 36.193 113.438H36.177C34.4103 113.438 32.9766 114.88 32.9766 116.662C32.9766 118.442 34.4103 119.886 36.177 119.886Z" fill="#130D3A"/>
</g>
<mask id="mask10_1609_3940" style="mask-type:luminance" maskUnits="userSpaceOnUse" x="16" y="113" width="7" height="7">
<path fill-rule="evenodd" clip-rule="evenodd" d="M16.4688 113.438H22.8855V119.886H16.4688V113.438Z" fill="white"/>
</mask>
<g mask="url(#mask10_1609_3940)">
<path fill-rule="evenodd" clip-rule="evenodd" d="M19.6691 119.886H19.6851C21.4518 119.886 22.8855 118.442 22.8855 116.662C22.8855 114.88 21.4518 113.438 19.6851 113.438H19.6691C17.9025 113.438 16.4688 114.88 16.4688 116.662C16.4688 118.442 17.9025 119.886 19.6691 119.886Z" fill="#130D3A"/>
</g>
<mask id="mask11_1609_3940" style="mask-type:luminance" maskUnits="userSpaceOnUse" x="49" y="113" width="7" height="7">
<path fill-rule="evenodd" clip-rule="evenodd" d="M49.5 113.438H55.9008V119.886H49.5V113.438Z" fill="white"/>
</mask>
<g mask="url(#mask11_1609_3940)">
<path fill-rule="evenodd" clip-rule="evenodd" d="M52.7004 119.886C53.5421 119.886 54.3678 119.543 54.9631 118.941C55.5599 118.342 55.9008 117.51 55.9008 116.662C55.9008 115.812 55.5599 114.982 54.9631 114.381C54.3678 113.781 53.5421 113.438 52.7004 113.438C51.8571 113.438 51.033 113.781 50.4361 114.381C49.8408 114.982 49.5 115.812 49.5 116.662C49.5 117.51 49.8408 118.342 50.4361 118.941C51.033 119.543 51.8571 119.886 52.7004 119.886Z" fill="#130D3A"/>
</g>
<mask id="mask12_1609_3940" style="mask-type:luminance" maskUnits="userSpaceOnUse" x="66" y="113" width="7" height="7">
<path fill-rule="evenodd" clip-rule="evenodd" d="M66.4141 113.438H72.8148V119.886H66.4141V113.438Z" fill="white"/>
</mask>
<g mask="url(#mask12_1609_3940)">
<path fill-rule="evenodd" clip-rule="evenodd" d="M69.6145 119.886C70.4578 119.886 71.2819 119.543 71.8787 118.941C72.474 118.342 72.8148 117.51 72.8148 116.662C72.8148 115.812 72.474 114.982 71.8787 114.381C71.2819 113.781 70.4578 113.438 69.6145 113.438C68.7727 113.438 67.947 113.781 67.3518 114.381C66.7549 114.982 66.4141 115.812 66.4141 116.662C66.4141 117.51 66.7549 118.342 67.3518 118.941C67.947 119.543 68.7727 119.886 69.6145 119.886Z" fill="#130D3A"/>
</g>
<mask id="mask13_1609_3940" style="mask-type:luminance" maskUnits="userSpaceOnUse" x="99" y="113" width="7" height="7">
<path fill-rule="evenodd" clip-rule="evenodd" d="M99.4219 113.438H105.839V119.886H99.4219V113.438Z" fill="white"/>
</mask>
<g mask="url(#mask13_1609_3940)">
<path fill-rule="evenodd" clip-rule="evenodd" d="M102.622 119.886H102.638C104.406 119.886 105.839 118.442 105.839 116.662C105.839 114.88 104.406 113.438 102.638 113.438H102.622C100.856 113.438 99.4219 114.88 99.4219 116.662C99.4219 118.442 100.856 119.886 102.622 119.886Z" fill="#130D3A"/>
</g>
<mask id="mask14_1609_3940" style="mask-type:luminance" maskUnits="userSpaceOnUse" x="82" y="113" width="8" height="7">
<path fill-rule="evenodd" clip-rule="evenodd" d="M82.9062 113.438H89.323V119.886H82.9062V113.438Z" fill="white"/>
</mask>
<g mask="url(#mask14_1609_3940)">
<path fill-rule="evenodd" clip-rule="evenodd" d="M86.1066 119.886H86.1226C87.8893 119.886 89.323 118.442 89.323 116.662C89.323 114.88 87.8893 113.438 86.1226 113.438H86.1066C84.34 113.438 82.9062 114.88 82.9062 116.662C82.9062 118.442 84.34 119.886 86.1066 119.886Z" fill="#130D3A"/>
</g>
<mask id="mask15_1609_3940" style="mask-type:luminance" maskUnits="userSpaceOnUse" x="116" y="113" width="7" height="7">
<path fill-rule="evenodd" clip-rule="evenodd" d="M116.328 113.438H122.729V119.886H116.328V113.438Z" fill="white"/>
</mask>
<g mask="url(#mask15_1609_3940)">
<path fill-rule="evenodd" clip-rule="evenodd" d="M119.529 119.886C120.37 119.886 121.196 119.543 121.791 118.941C122.388 118.342 122.729 117.51 122.729 116.662C122.729 115.812 122.388 114.982 121.791 114.381C121.196 113.781 120.37 113.438 119.529 113.438C118.685 113.438 117.861 113.781 117.264 114.381C116.669 114.982 116.328 115.812 116.328 116.662C116.328 117.51 116.669 118.342 117.264 118.941C117.861 119.543 118.685 119.886 119.529 119.886Z" fill="#130D3A"/>
</g>
</svg>
